HIERARCHY
ROOT Hips
{
	OFFSET	0.00	0.00	0.00
	CHANNELS 6 Xposition Yposition Zposition Zrotation Xrotation Yrotation
	JOINT LeftUpLeg
	{
		OFFSET	 0.126116	-0.065224	 0.014019
		CHANNELS 3 Zrotation Xrotation Yrotation
		JOINT LeftLowerLeg
		{
			OFFSET	 0.000000	 0.569914	 0.000000
			CHANNELS 3 Zrotation Xrotation Yrotation
			JOINT LeftFoot
			{
				OFFSET	 0.000000	 0.544423	 0.000000
				CHANNELS 3 Zrotation Xrotation Yrotation
				JOINT LeftToeBase
				{
					OFFSET	 0.000000	 0.207117	 0.000000
					CHANNELS 3 Zrotation Xrotation Yrotation
					End Site
					{
						OFFSET	 0.000000	 0.207117	 0.000000
					}
				}
			}
		}
	}
	JOINT RightUpLeg
	{
		OFFSET	-0.124023	-0.065224	 0.008373
		CHANNELS 3 Zrotation Xrotation Yrotation
		JOINT RightLeg
		{
			OFFSET	 0.000000	 0.570047	 0.000000
			CHANNELS 3 Zrotation Xrotation Yrotation
			JOINT RightFoot
			{
				OFFSET	 0.000000	 0.544354	 0.000000
				CHANNELS 3 Zrotation Xrotation Yrotation
				JOINT RightToeBase
				{
					OFFSET	 0.000000	 0.207540	 0.000000
					CHANNELS 3 Zrotation Xrotation Yrotation
					End Site
					{
						OFFSET	 0.000000	 0.207540	 0.000000
					}
				}
			}
		}
	}
	JOINT Spine
	{
		OFFSET	 0.000184	 0.117403	 0.007763
		CHANNELS 3 Zrotation Xrotation Yrotation
		JOINT Spine1
		{
			OFFSET	 0.000000	 0.137269	 0.000000
			CHANNELS 3 Zrotation Xrotation Yrotation
			JOINT Spine2
			{
				OFFSET	 0.000000	 0.156879	 0.000000
				CHANNELS 3 Zrotation Xrotation Yrotation
				JOINT LeftShoulder
				{
					OFFSET	 0.080501	 0.160143	 0.002496
					CHANNELS 3 Zrotation Xrotation Yrotation
					JOINT LeftArm
					{
						OFFSET	 0.000000	 0.164363	 0.000000
						CHANNELS 3 Zrotation Xrotation Yrotation
						JOINT LeftForeArm
						{
							OFFSET	 0.000000	 0.364576	 0.000000
							CHANNELS 3 Zrotation Xrotation Yrotation
							JOINT LeftHand
							{
								OFFSET	 0.000000	 0.360812	 0.000000
								CHANNELS 3 Zrotation Xrotation Yrotation
								JOINT LeftHandIndex1
								{
									OFFSET	 0.000000	 0.086006	 0.000000
									CHANNELS 3 Zrotation Xrotation Yrotation
									JOINT LeftHandIndex2
									{
										OFFSET	 0.000000	 0.047237	 0.000000
										CHANNELS 3 Zrotation Xrotation Yrotation
										JOINT LeftHandIndex3
										{
											OFFSET	-0.004284	 0.038165	 0.000551
											CHANNELS 3 Zrotation Xrotation Yrotation
											End Site
											{
												OFFSET	-0.004284	 0.038165	 0.000551
											}
										}
									}
								}
							}
						}
					}
				}
				JOINT Neck
				{
					OFFSET	 0.000000	 0.176489	 0.000000
					CHANNELS 3 Zrotation Xrotation Yrotation
					JOINT Head
					{
						OFFSET	 0.000000	 0.077941	 0.001747
						CHANNELS 3 Zrotation Xrotation Yrotation
						End Site
						{
							OFFSET	 0.000000	 0.077941	 0.001747
						}
					}
				}
				JOINT RightShoulder
				{
					OFFSET	-0.080363	 0.159706	-0.000306
					CHANNELS 3 Zrotation Xrotation Yrotation
					JOINT RightArm
					{
						OFFSET	 0.000000	 0.164196	 0.000000
						CHANNELS 3 Zrotation Xrotation Yrotation
						JOINT RightForeArm
						{
							OFFSET	 0.000000	 0.365611	 0.000000
							CHANNELS 3 Zrotation Xrotation Yrotation
							JOINT RightHand
							{
								OFFSET	 0.000000	 0.360648	 0.000000
								CHANNELS 3 Zrotation Xrotation Yrotation
								JOINT RightHandIndex1
								{
									OFFSET	 0.000000	 0.069977	 0.000000
									CHANNELS 3 Zrotation Xrotation Yrotation
									JOINT RightHandIndex2
									{
										OFFSET	 0.000000	 0.052305	 0.000000
										CHANNELS 3 Zrotation Xrotation Yrotation
										JOINT RightHandIndex3
										{
											OFFSET	 0.009002	 0.042196	 0.000782
											CHANNELS 3 Zrotation Xrotation Yrotation
											End Site
											{
												OFFSET	 0.009002	 0.042196	 0.000782
											}
										}
									}
								}
							}
						}
					}
				}
			}
		}
	}
}
MOTION
Frames:    11
Frame Time: 0.03333334
-0.017375	 1.255322	 0.115061	 4.777403	 0.327858	 173.941600	-175.893400	 16.711850	 18.654380	 2.803192	-27.942930	 1.273363	 49.599770	 48.194730	-66.603570	 4.912823	 28.009650	-6.307259	-168.964400	 3.253591	-12.065670	-1.476198	-16.642270	 1.964540	-56.806220	 56.626640	 60.495570	-0.375444	 31.170380	 1.631998	 1.355175	 3.898696	-14.741740	 8.870239	 9.446247	-7.971944	-7.393075	-7.357103	 25.447550	-112.572800	 3.140154	 88.315790	-9.990746	 50.654010	 34.977630	 28.689880	-1.450019	 0.939112	-36.902630	-3.204635	-96.247990	-8.025439	 12.502670	-5.831190	-7.228703	 12.665640	 2.804234	 4.963066	-4.014628	-0.346955	 1.528192	-13.929950	 1.347994	-2.445509	 8.037366	-16.184250	 109.137600	 0.665484	-88.590510	-11.750460	 66.023920	 11.396430	-6.585618	-0.608085	 41.389090	-23.377330	 19.103860	-98.307030	 2.021950	 8.325932	 8.960834	 15.202860	 20.243160	-6.342599	-8.239867	-2.131385	 0.447455
-0.017663	 1.255767	 0.114943	 4.849783	 0.303112	 173.977400	-175.851600	 16.777970	 18.675490	 2.814007	-28.034280	 1.294247	 49.522680	 48.189740	-66.557200	 4.912824	 28.009660	-6.307253	-168.914800	 3.237081	-12.028110	-1.469131	-16.566900	 1.927162	-56.655250	 56.539260	 60.369280	-0.378705	 31.174360	 1.635232	 1.384156	 3.847307	-14.717910	 9.282198	 9.684114	-8.060566	-7.841733	-7.725940	 25.381410	-112.554200	 3.116917	 88.312590	-10.497660	 50.314920	 35.260180	 29.343880	-1.480147	 0.955010	-36.852290	-3.190515	-96.071590	-8.004078	 12.520190	-5.836475	-7.228800	 12.661580	 2.803679	 4.963066	-4.014628	-0.346955	 1.509054	-13.900870	 1.357773	-2.452593	 7.974907	-16.292000	 109.114400	 0.683186	-88.599520	-11.755730	 66.218290	 11.457020	-6.464446	-0.596865	 41.333050	-24.296140	 19.202520	-98.170790	 2.003562	 8.276336	 8.960401	 15.202930	 20.254160	-6.345609	-8.239867	-2.131385	 0.447455
-0.017967	 1.256191	 0.114797	 4.918324	 0.272911	 174.024400	-175.819200	 16.855790	 18.707660	 2.826005	-28.135360	 1.320087	 49.450280	 48.184050	-66.516940	 4.912825	 28.009670	-6.307245	-168.866300	 3.238154	-11.980910	-1.464432	-16.516820	 1.878534	-56.528720	 56.450390	 60.275720	-0.382885	 31.179470	 1.639378	 1.415299	 3.797822	-14.698280	 9.680113	 9.904742	-8.151299	-8.278321	-8.081766	 25.316030	-112.530500	 3.087166	 88.308510	-10.991250	 49.989160	 35.516200	 29.981290	-1.509243	 0.970556	-36.871990	-3.187812	-95.853450	-7.976696	 12.542630	-5.843257	-7.228924	 12.656370	 2.802968	 4.963066	-4.014628	-0.346955	 1.484524	-13.863600	 1.370317	-2.456242	 7.937211	-16.445400	 109.084700	 0.705879	-88.611020	-11.668710	 66.423470	 11.453290	-6.408603	-0.591731	 41.260860	-25.231420	 19.288640	-98.045750	 1.980001	 8.212778	 8.959823	 15.203030	 20.268260	-6.349467	-8.239867	-2.131385	 0.447455
-0.018283	 1.256581	 0.114626	 4.981021	 0.238054	 174.081100	-175.797500	 16.943680	 18.750510	 2.838981	-28.244650	 1.350219	 49.384960	 48.177710	-66.484920	 4.912827	 28.009680	-6.307238	-168.820400	 3.258034	-11.925260	-1.462498	-16.496190	 1.819876	-56.430870	 56.363660	 60.218860	-0.387893	 31.185600	 1.644345	 1.447311	 3.750563	-14.682910	 10.052400	 10.105740	-8.241261	-8.690430	-8.416924	 25.253500	-112.502000	 3.051513	 88.303620	-11.461560	 49.684580	 35.741240	 30.587620	-1.536812	 0.985398	-36.962390	-3.198071	-95.598100	-7.943887	 12.569520	-5.851398	-7.229073	 12.650130	 2.802116	 4.963066	-4.014628	-0.346955	 1.455129	-13.818960	 1.385366	-2.456356	 7.926662	-16.641260	 109.049100	 0.733083	-88.624810	-11.486460	 66.634090	 11.380630	-6.420442	-0.592908	 41.173810	-26.160160	 19.361180	-97.934560	 1.951776	 8.136628	 8.959095	 15.203140	 20.285160	-6.354091	-8.239867	-2.131385	 0.447455
-0.018585	 1.256905	 0.114440	 5.033561	 0.201397	 174.141700	-175.787200	 17.034220	 18.799330	 2.851995	-28.353810	 1.381750	 49.332150	 48.172040	-66.464020	 4.912829	 28.009690	-6.307229	-168.780100	 3.294673	-11.866820	-1.463458	-16.506440	 1.757572	-56.367740	 56.287420	 60.201100	-0.393210	 31.192090	 1.649617	 1.476902	 3.708784	-14.671960	 10.373310	 10.272680	-8.322169	-9.048268	-8.706350	 25.198660	-112.471800	 3.013673	 88.298470	-11.875170	 49.422850	 35.922890	 31.117960	-1.560759	 0.998300	-37.105930	-3.220221	-95.330180	-7.909061	 12.598050	-5.860056	-7.229231	 12.643510	 2.801212	 4.963066	-4.014628	-0.346955	 1.423927	-13.771590	 1.401358	-2.453408	 7.941298	-16.857730	 109.011400	 0.761959	-88.639420	-11.230410	 66.831730	 11.248300	-6.490598	-0.599267	 41.080190	-27.007590	 19.416070	-97.842800	 1.921827	 8.055818	 8.958281	 15.203260	 20.303080	-6.358997	-8.239867	-2.131385	 0.447455
-0.018899	 1.257192	 0.114222	 5.081135	 0.161275	 174.210600	-175.786700	 17.133400	 18.856980	 2.866112	-28.472190	 1.416743	 49.286530	 48.167510	-66.451420	 4.912831	 28.009700	-6.307218	-168.741400	 3.348497	-11.801400	-1.467201	-16.546280	 1.687711	-56.331190	 56.215400	 60.217620	-0.399186	 31.199390	 1.655544	 1.506176	 3.669354	-14.663860	 10.673360	 10.423210	-8.400776	-9.385446	-8.977875	 25.146450	-112.437800	 2.971146	 88.292700	-12.273150	 49.177820	 36.082730	 31.623890	-1.583446	 1.010694	-37.305550	-3.255807	-95.031170	-7.869905	 12.630100	-5.869810	-7.229410	 12.636060	 2.800196	 4.963066	-4.014628	-0.346955	 1.388848	-13.718350	 1.419361	-2.447575	 7.979508	-17.108060	 108.968900	 0.794430	-88.655820	-10.888530	 67.032520	 11.051440	-6.615134	-0.610753	 40.975240	-27.848040	 19.461840	-97.761090	 1.888170	 7.964983	 8.957317	 15.203400	 20.323230	-6.364512	-8.239867	-2.131385	 0.447455
-0.019234	 1.257446	 0.113963	 5.124625	 0.116107	 174.288500	-175.796400	 17.244320	 18.924900	 2.881866	-28.603830	 1.456058	 49.248510	 48.164130	-66.448910	 4.912834	 28.009710	-6.307207	-168.703700	 3.422680	-11.727780	-1.474093	-16.619790	 1.609057	-56.321460	 56.148000	 60.270290	-0.405958	 31.207660	 1.662260	 1.535101	 3.629726	-14.657320	 10.958880	 10.562830	-8.477795	-9.708899	-9.237931	 25.095890	-112.399300	 2.922958	 88.286170	-12.664510	 48.944200	 36.224700	 32.115770	-1.605373	 1.022617	-37.564950	-3.307668	-94.692830	-7.825540	 12.666410	-5.880887	-7.229611	 12.627630	 2.799045	 4.963066	-4.014628	-0.346955	 1.349099	-13.658060	 1.439790	-2.438631	 8.043112	-17.397880	 108.920900	 0.831196	-88.674340	-10.452550	 67.239300	 10.785120	-6.792845	-0.627072	 40.855740	-28.702150	 19.500870	-97.685010	 1.850050	 7.862087	 8.956160	 15.203570	 20.346050	-6.370762	-8.239867	-2.131385	 0.447455
-0.019579	 1.257653	 0.113669	 5.162335	 0.068328	 174.372700	-175.816400	 17.362160	 19.000580	 2.898717	-28.744330	 1.498086	 49.219740	 48.162710	-66.456750	 4.912836	 28.009730	-6.307194	-168.668300	 3.513820	-11.648750	-1.483985	-16.725000	 1.524987	-56.339580	 56.088230	 60.357970	-0.413250	 31.216550	 1.669492	 1.562060	 3.592619	-14.652300	 11.218890	 10.686480	-8.549726	-10.005870	-9.476626	 25.048840	-112.358000	 2.871066	 88.279200	-13.035710	 48.730140	 36.344860	 32.575820	-1.625791	 1.033650	-37.872090	-3.375576	-94.328160	-7.777760	 12.705490	-5.892846	-7.229829	 12.618560	 2.797806	 4.963066	-4.014628	-0.346955	 1.306293	-13.593170	 1.461827	-2.426866	 8.129991	-17.715350	 108.869200	 0.870830	-88.694270	-9.943325	 67.442730	 10.462580	-7.011037	-0.647132	 40.726860	-29.538760	 19.533520	-97.615330	 1.809017	 7.751305	 8.954837	 15.203740	 20.370630	-6.377490	-8.239867	-2.131385	 0.447455
-0.019948	 1.257818	 0.113323	 5.195650	 0.015828	 174.466300	-175.848000	 17.492210	 19.087200	 2.917531	-28.900870	 1.544444	 49.200010	 48.163800	-66.476620	 4.912839	 28.009750	-6.307182	-168.633900	 3.627028	-11.561270	-1.497540	-16.869210	 1.432600	-56.387490	 56.035280	 60.485870	-0.421345	 31.226430	 1.677520	 1.587915	 3.556248	-14.647760	 11.463590	 10.798530	-8.618150	-10.288100	-9.702863	 25.003430	-112.312000	 2.813494	 88.271520	-13.403430	 48.526700	 36.449650	 33.022820	-1.645493	 1.044366	-38.237060	-3.464560	-93.921730	-7.724720	 12.748840	-5.906158	-7.230071	 12.608490	 2.796431	 4.963066	-4.014628	-0.346955	 1.258771	-13.521180	 1.486333	-2.411702	 8.243997	-18.072720	 108.811800	 0.914804	-88.716320	-9.337871	 67.649620	 10.068330	-7.275337	-0.671407	 40.583730	-30.392440	 19.562430	-97.547440	 1.763490	 7.628366	 8.953275	 15.203940	 20.397900	-6.384958	-8.239867	-2.131385	 0.447455
-0.020389	 1.257945	 0.112873	 5.226926	-0.047601	 174.581300	-175.897300	 17.650550	 19.195880	 2.940818	-29.093790	 1.600815	 49.189560	 48.169030	-66.513210	 4.912842	 28.009770	-6.307165	-168.597300	 3.778434	-11.454780	-1.517018	-17.075940	 1.321113	-56.476980	 55.985420	 60.676450	-0.431235	 31.238490	 1.687328	 1.614031	 3.516764	-14.642740	 11.715330	 10.909540	-8.688804	-10.581360	-9.937104	 24.955160	-112.256000	 2.743156	 88.262180	-13.804500	 48.314900	 36.546830	 33.499390	-1.666366	 1.055544	-38.706990	-3.591157	-93.422320	-7.659909	 12.801770	-5.922478	-7.230366	 12.596180	 2.794752	 4.963066	-4.014628	-0.346955	 1.200706	-13.433270	 1.516338	-2.390624	 8.403418	-18.514890	 108.741700	 0.968563	-88.743230	-8.556880	 67.879870	 9.548948	-7.616378	-0.702739	 40.409000	-31.355920	 19.591430	-97.471840	 1.707895	 7.478209	 8.951235	 15.204190	 20.431200	-6.394081	-8.239867	-2.131385	 0.447455
-0.020855	 1.258006	 0.112354	 5.251489	-0.115149	 174.705600	-175.961800	 17.820730	 19.316650	 2.966402	-29.304980	 1.661402	 49.192490	 48.178470	-66.566350	 4.912846	 28.009790	-6.307147	-168.563400	 3.954949	-11.339770	-1.541110	-17.330880	 1.202305	-56.604150	 55.947400	 60.916240	-0.441926	 31.251520	 1.697932	 1.636463	 3.479182	-14.636850	 11.941030	 11.006080	-8.751793	-10.847640	-10.150430	 24.910020	-112.195400	 2.667157	 88.252200	-14.193350	 48.120730	 36.623440	 33.948350	-1.685976	 1.065839	-39.235580	-3.748954	-92.878860	-7.589842	 12.858950	-5.940186	-7.230686	 12.582890	 2.792937	 4.963066	-4.014628	-0.346955	 1.137930	-13.338310	 1.548852	-2.365038	 8.596086	-18.998400	 108.666100	 1.026685	-88.772210	-7.677993	 68.104730	 8.955898	-7.994203	-0.737250	 40.219480	-32.324110	 19.618510	-97.393760	 1.647831	 7.315943	 8.948865	 15.204470	 20.467190	-6.403942	-8.239867	-2.131385	 0.447455
